<svg width="33" height="32" viewBox="0 0 33 32" fill="none" xmlns="http://www.w3.org/2000/svg">
<g clip-path="url(#clip0_662_1417)">
<mask id="mask0_662_1417" style="mask-type:alpha" maskUnits="userSpaceOnUse" x="0" y="0" width="32" height="32">
<path d="M16 0C4 0 0 4 0 16C0 28 4 32 16 32C28 32 32 28 32 16C32 4 28 0 16 0Z" fill="white"/>
</mask>
<g mask="url(#mask0_662_1417)">
<circle cx="15.9984" cy="16.0004" r="21.6" fill="#7140FD"/>
<path fill-rule="evenodd" clip-rule="evenodd" d="M20.0126 8.92373C19.8249 9.18919 19.664 9.47151 19.5342 9.77068C19.4721 9.91395 19.4142 10.053 19.3648 10.1892C19.187 10.6654 19.0755 11.0994 18.964 11.5348L18.9589 11.5546C18.8167 12.1056 18.6742 12.6577 18.3939 13.2975C18.264 13.5953 18.1046 13.8818 17.9183 14.1501C17.9112 14.1613 17.9028 14.1726 17.8943 14.1824C17.8911 14.1872 17.8877 14.1919 17.8844 14.1965L17.8769 14.2066L17.8689 14.2175C20.3697 14.924 23.1654 13.9858 24.1801 11.6837C24.8039 10.2707 24.4568 8.50096 23.0483 7.88997C21.915 7.39837 20.8029 7.80148 20.014 8.92373H20.0126ZM6.22666 15.9732C6.3325 15.6656 6.4694 15.3706 6.63593 15.0911C6.71637 14.9563 6.7954 14.8299 6.87726 14.7091C7.16093 14.2863 7.44883 13.9422 7.73814 13.5967L7.76511 13.5643L7.76512 13.5643C8.12594 13.1313 8.48782 12.697 8.83894 12.1036C9.00547 11.8241 9.14519 11.5277 9.25386 11.2215L9.26021 11.2019L9.26656 11.1822C9.2708 11.1668 9.27503 11.1527 9.27926 11.1415C11.32 12.7441 12.1936 15.549 10.9149 17.7148C10.1303 19.0464 8.48612 19.8034 7.16375 19.0253C6.09964 18.4003 5.77646 17.2668 6.22666 15.9732ZM25.3883 21.374C22.6892 21.374 20.5013 19.1965 20.5013 16.5103H17.6471C17.6471 20.7653 21.1129 24.2146 25.3883 24.2146V21.374ZM16.0705 16.5103C16.0705 20.7653 12.6048 24.2146 8.32931 24.2146V21.374C11.0284 21.374 13.2163 19.1965 13.2163 16.5103H16.0705ZM16.07 16.5089V7.91016H13.2159V16.5089H16.07Z" fill="white"/>
</g>
</g>
<defs>
<clipPath id="clip0_662_1417">
<rect width="32.1531" height="32" fill="white"/>
</clipPath>
</defs>
</svg>
